<svg xmlns="http://www.w3.org/2000/svg" viewBox="0 0 64 64">
  <rect x="2" y="2" width="60" height="60" rx="14" fill="#0f172a" />
  <g fill="none" stroke="#f8fafc" stroke-width="4.5" stroke-linecap="round" stroke-linejoin="round">
    <path d="M32 47V21" />
    <path d="M39 35a9 9 0 0 1-7-8 9 9 0 0 1-7 8" />
    <path d="M45 23a6.5 6.5 0 1 0-13-0.5 6.5 6.5 0 1 0-13 0.5" />
    <path d="M45.8 20.6a8.5 8.5 0 0 1 5.4 12.2" />
    <path d="M46 47a8.5 8.5 0 0 0 4.3-15.9" />
    <path d="M50.5 46a8.5 8.5 0 1 1-37 0" />
    <path d="M18 47A8.5 8.5 0 0 1 13.7 31.1" />
    <path d="M18.2 20.6a8.5 8.5 0 0 0-5.4 12.2" />
  </g>
</svg>
